<?xml version="1.0" encoding="utf-8"?>
<!-- Generator: Adobe Illustrator 23.0.1, SVG Export Plug-In . SVG Version: 6.00 Build 0)  -->
<svg version="1.1" id="Layer_1" xmlns="http://www.w3.org/2000/svg" xmlns:xlink="http://www.w3.org/1999/xlink" x="0px" y="0px"
	 viewBox="0 0 149.38 101.67" style="enable-background:new 0 0 149.38 101.67;" xml:space="preserve">
<style type="text/css">
	.st0{fill:#C9DB2E;}
	.st1{fill-rule:evenodd;clip-rule:evenodd;fill:#4DB2AD;}
	.st2{fill:#093437;}
	.st3{enable-background:new    ;}
	.st4{fill:#FFFFFF;}
	.st5{fill:#FDB716;}
</style>
<g>
	<rect x="9.88" y="10.45" class="st0" width="107.62" height="58.76"/>
	<rect x="31.88" y="32.45" class="st1" width="107.62" height="58.76"/>
	<rect x="20.88" y="21.45" class="st2" width="107.62" height="58.76"/>
	<g>
		<g class="st3">
			<path class="st4" d="M47.1,44.33l0.21-2.08h3.81v17.2c0,2.79-0.85,5.02-2.54,6.64c-1.7,1.62-3.96,2.44-6.82,2.44
				c-3.46,0-6.29-1.27-8.44-3.78l2.79-2.79c1.59,1.87,3.46,2.83,5.62,2.83c3.14,0,5.16-2.08,5.16-5.23v-1.48
				c-1.2,1.45-2.97,2.16-5.26,2.16c-2.37,0-4.31-0.85-5.83-2.58c-1.52-1.73-2.26-3.96-2.26-6.6c0-2.65,0.74-4.84,2.26-6.57
				c1.52-1.73,3.46-2.58,5.83-2.58C44.14,41.9,45.94,42.71,47.1,44.33z M37.81,51.04c0,3.25,1.94,5.44,4.73,5.44
				c1.84,0,3.29-0.88,4.34-2.65v-5.55c-1.06-1.77-2.51-2.65-4.34-2.65C39.75,45.64,37.81,47.79,37.81,51.04z"/>
			<path class="st4" d="M65.58,46.13h-0.35c-1.8,0-3.36,0.88-4.66,2.68v11.23h-4.24v-17.8h3.81l0.21,2.37
				c0.99-1.55,2.83-2.72,5.23-2.72V46.13z"/>
			<path class="st4" d="M82.93,57.79c-1.73,1.73-3.96,2.61-6.61,2.61s-4.88-0.88-6.64-2.61c-1.73-1.73-2.61-3.96-2.61-6.6
				c0-2.68,0.88-4.91,2.61-6.64c1.77-1.77,3.99-2.65,6.64-2.65s4.88,0.88,6.61,2.65c1.77,1.73,2.65,3.96,2.65,6.64
				C85.58,53.83,84.69,56.06,82.93,57.79z M76.32,56.66c1.45,0,2.61-0.53,3.57-1.55c0.95-1.02,1.41-2.33,1.41-3.92
				c0-1.59-0.46-2.93-1.41-3.96c-0.95-1.06-2.12-1.59-3.57-1.59s-2.61,0.53-3.57,1.59c-0.92,1.02-1.38,2.37-1.38,3.96
				C71.38,54.33,73.46,56.66,76.32,56.66z"/>
		</g>
		<g class="st3">
			<path class="st4" d="M93.42,33.21v19.43l6.89-10.39h5.09l-5.44,7.59l6.15,10.21h-4.88l-4.03-6.61l-4.66,6.61h-3.36V33.21H93.42z"
				/>
		</g>
		<g class="st3">
			<path class="st4" d="M116.21,54.35c1.4,1.31,1.4,3.84,0,5.16c-1.31,1.31-3.71,1.31-5.11,0c-1.31-1.31-1.31-3.84,0-5.16
				C112.5,53.04,114.9,53.04,116.21,54.35z"/>
		</g>
		<g class="st3">
			<path class="st4" d="M47.1,44.33l0.21-2.08h3.81v17.2c0,2.79-0.85,5.02-2.54,6.64c-1.7,1.62-3.96,2.44-6.82,2.44
				c-3.46,0-6.29-1.27-8.44-3.78l2.79-2.79c1.59,1.87,3.46,2.83,5.62,2.83c3.14,0,5.16-2.08,5.16-5.23v-1.48
				c-1.2,1.45-2.97,2.16-5.26,2.16c-2.37,0-4.31-0.85-5.83-2.58c-1.52-1.73-2.26-3.96-2.26-6.6c0-2.65,0.74-4.84,2.26-6.57
				c1.52-1.73,3.46-2.58,5.83-2.58C44.14,41.9,45.94,42.71,47.1,44.33z M37.81,51.04c0,3.25,1.94,5.44,4.73,5.44
				c1.84,0,3.29-0.88,4.34-2.65v-5.55c-1.06-1.77-2.51-2.65-4.34-2.65C39.75,45.64,37.81,47.79,37.81,51.04z"/>
			<path class="st4" d="M65.58,46.13h-0.35c-1.8,0-3.36,0.88-4.66,2.68v11.23h-4.24v-17.8h3.81l0.21,2.37
				c0.99-1.55,2.83-2.72,5.23-2.72V46.13z"/>
			<path class="st4" d="M82.93,57.79c-1.73,1.73-3.96,2.61-6.61,2.61s-4.88-0.88-6.64-2.61c-1.73-1.73-2.61-3.96-2.61-6.6
				c0-2.68,0.88-4.91,2.61-6.64c1.77-1.77,3.99-2.65,6.64-2.65s4.88,0.88,6.61,2.65c1.77,1.73,2.65,3.96,2.65,6.64
				C85.58,53.83,84.69,56.06,82.93,57.79z M76.32,56.66c1.45,0,2.61-0.53,3.57-1.55c0.95-1.02,1.41-2.33,1.41-3.92
				c0-1.59-0.46-2.93-1.41-3.96c-0.95-1.06-2.12-1.59-3.57-1.59s-2.61,0.53-3.57,1.59c-0.92,1.02-1.38,2.37-1.38,3.96
				C71.38,54.33,73.46,56.66,76.32,56.66z"/>
		</g>
		<g class="st3">
			<path class="st4" d="M93.42,33.21v19.43l6.89-10.39h5.09l-5.44,7.59l6.15,10.21h-4.88l-4.03-6.61l-4.66,6.61h-3.36V33.21H93.42z"
				/>
		</g>
		<g class="st3">
			<path class="st5" d="M116.21,54.35c1.4,1.31,1.4,3.84,0,5.16c-1.31,1.31-3.71,1.31-5.11,0c-1.31-1.31-1.31-3.84,0-5.16
				C112.5,53.04,114.9,53.04,116.21,54.35z"/>
		</g>
	</g>
</g>
</svg>
